:SAMPLES-PER-SECOND 30
:FULLY-SPECIFIED
:DEGREES
142
root  -0.9848533653 41.83133343 3.597422097 8.093002319 1.018997192 4.690994263
lowerback  17.05139923 -1.760139942 -7.658390045
upperback  6.165269852 -3.543730021 -0.7422189713
thorax  -2.497770071 -1.819280028 4.191549778
lowerneck  -1.038159966 -4.053649902 -12.86800003
upperneck  10.34060001 -5.94712019 11.07349968
head  3.945029974 -2.976599932 5.292359829
lclavicle  0 -9.442270133e-015 7.951389973e-016
lhumerus  6.44825983 -18.23480034 77.14969635
lradius  2.128773604e-031 -2.817297816e-031 127.0749969
lwrist  -7.062250077e-031 2.648343779e-031 19.47999954
lhand  -1.496451383e-031 -27.76390076 20.11240005
lfingers  90 7.125020027 -90
lthumb  89.89689403 5.08795885 91.16245106
rclavicle  0 -9.442270133e-015 7.951389973e-016
rhumerus  -29.91300011 6.758629799 -77.43920135
rradius  -1.141751823e-031 3.341443822e-031 108.8649979
rwrist  7.062250077e-031 1.765562519e-031 -6.979149818
rhand  -7.920061211e-032 -33.2840004 9.303460121
rfingers  -90 -7.125020027 -90
rthumb  -92.93752616 -24.25625642 -97.11982154
rfemur  -40.89509964 5.572919846 3.873759985
rtibia  -0 0 68.31539917
rfoot  -4.416163373e-032 1.831920028 -2.742899895
rtoes  5.373923086 19.29304026 -105.8922705
lfemur  -22.2166996 -10.80239964 -10.06509972
ltibia  -0 0 30.78030014
lfoot  5.597609561e-032 -9.71216011 -1.170070052
ltoes  -4.250644065 -19.5611806 -102.515957
143
root  -1.056419958 41.83400072 3.53135537 8 1.298995972 4.966995239
lowerback  17.02459908 -1.836910009 -7.830200195
upperback  6.235479832 -3.666090012 -0.7992389798
thorax  -2.38409996 -1.886989951 4.243929863
lowerneck  -0.995716989 -4.345419884 -13.13249969
upperneck  10.35499954 -6.355309963 11.2645998
head  4.007559776 -3.180890083 5.375130177
lclavicle  0 -9.442270133e-015 7.951389973e-016
lhumerus  7.317470074 -18.81699944 76.89399719
lradius  2.099749518e-031 -2.838995597e-031 126.4869995
lwrist  -7.062250077e-031 1.765562519e-031 19.54070091
lhand  -1.496451383e-031 -27.76390076 20.11240005
lfingers  90 7.125020027 -90
lthumb  89.89689403 5.08795885 91.16245106
rclavicle  0 -9.442270133e-015 7.951389973e-016
rhumerus  -29.93619919 7.141200066 -77.56079865
rradius  -1.168192756e-031 3.332291962e-031 109.3190002
rwrist  1.412450015e-030 -0 -7.392260075
rhand  -7.920061211e-032 -33.2840004 9.303460121
rfingers  -90 -7.125020027 -90
rthumb  -92.93752616 -24.25625642 -97.11982154
rfemur  -41.38470078 6.15846014 3.309890032
rtibia  -0 0 67.12149811
rfoot  -4.414265743e-032 0.731185019 -5.122980118
rtoes  5.373923086 19.29304026 -105.8922705
lfemur  -21.32679939 -9.499640465 -10.57680035
ltibia  -0 0 31.31870079
lfoot  4.748985029e-032 -10.86130047 -0.008120110258
ltoes  -4.250644065 -19.5611806 -102.515957
144
root  -1.125479965 41.80755615 3.4714665 7.830001831 1.56300354 5.289993286
lowerback  17.0753994 -1.899099946 -8.120260239
upperback  6.238029957 -3.797610044 -0.8195629716
thorax  -2.37003994 -1.955039978 4.409359932
lowerneck  -0.7685639858 -4.544760227 -13.46389961
upperneck  10.26990032 -6.656239986 11.49880028
head  4.00053978 -3.338670015 5.492380142
lclavicle  0 -9.442270133e-015 7.951389973e-016
lhumerus  8.113940239 -19.29170036 76.73310089
lradius  2.073697859e-031 -2.85807999e-031 125.9629974
lwrist  -1.412450015e-030 -0 19.55669975
lhand  -1.496451383e-031 -27.76390076 20.11240005
lfingers  90 7.125020027 -90
lthumb  89.89689403 5.08795885 91.16245106
rclavicle  0 -9.442270133e-015 7.951389973e-016
rhumerus  -30.01499939 7.602749825 -77.57980347
rradius  -1.203081568e-031 3.319855235e-031 109.9199982
rwrist  1.412450015e-030 1.765562519e-031 -7.778900146
rhand  -7.920061211e-032 -33.2840004 9.303460121
rfingers  -90 -7.125020027 -90
rthumb  -92.93752616 -24.25625642 -97.11982154
rfemur  -41.66009903 6.825409889 2.607939959
rtibia  -0 0 65.68090057
rfoot  -0 -0.2062740028 -7.511869907
rtoes  5.373923086 19.29304026 -105.8922705
lfemur  -20.30139923 -8.104519844 -11.10350037
ltibia  -0 0 32.03210068
lfoot  4.50561641e-032 -11.57999992 0.4186449945
ltoes  -4.250644065 -19.5611806 -102.515957
145
root  -1.201424449 41.75666749 3.407200115 7.587997437 1.761001587 5.518997192
lowerback  17.17090034 -1.967069983 -8.376879692
upperback  6.24296999 -3.93611002 -0.8393679857
thorax  -2.377350092 -2.025429964 4.560229778
lowerneck  -0.5729110241 -4.646029949 -13.68109989
upperneck  10.20979977 -6.823349953 11.6821003
head  3.984509945 -3.427890062 5.581779957
lclavicle  0 -9.442270133e-015 7.951389973e-016
lhumerus  8.771659851 -19.64459991 76.59089661
lradius  2.055047668e-031 -2.871519305e-031 125.5899963
lwrist  -1.412450015e-030 -8.827812596e-032 19.55750084
lhand  -1.496451383e-031 -27.76390076 20.11240005
lfingers  90 7.125020027 -90
lthumb  89.89689403 5.08795885 91.16245106
rclavicle  0 -9.442270133e-015 7.951389973e-016
rhumerus  -30.03409958 8.107430458 -77.67970276
rradius  -1.243781316e-031 3.304822548e-031 110.6240005
rwrist  7.062250077e-031 -1.765562519e-031 -8.091279984
rhand  -7.920061211e-032 -33.2840004 9.303460121
rfingers  -90 -7.125020027 -90
rthumb  -92.93752616 -24.25625642 -97.11982154
rfemur  -41.79840088 7.772759914 1.918429971
rtibia  -0 0 64.01329803
rfoot  -0 -0.9950590134 -9.736550331
rtoes  5.373923086 19.29304026 -105.8922705
lfemur  -19.24029922 -6.766860008 -11.44349957
ltibia  -0 0 32.93320084
lfoot  4.509121794e-032 -11.79539967 0.9873539805
ltoes  -4.250644065 -19.5611806 -102.515957
146
root  -1.279535538 41.68599947 3.338400022 7.31300354 1.947998047 5.753997803
lowerback  17.35409927 -2.045350075 -8.650549889
upperback  6.224899769 -4.101419926 -0.8608070016
thorax  -2.449130058 -2.105340004 4.729730129
lowerneck  -0.6356220245 -4.746310234 -13.83450031
upperneck  10.32260036 -6.957449913 11.71879959
head  4.053619862 -3.496700048 5.609759808
lclavicle  0 -9.442270133e-015 7.951389973e-016
lhumerus  9.145549774 -19.83160019 76.56919861
lradius  2.037820923e-031 -2.883770088e-031 125.2470016
lwrist  -1.412450015e-030 8.827812596e-032 19.35470009
lhand  -1.496451383e-031 -27.76390076 20.11240005
lfingers  90 7.125020027 -90
lthumb  89.89689403 5.08795885 91.16245106
rclavicle  0 -9.442270133e-015 7.951389973e-016
rhumerus  -29.90550041 8.582690239 -77.69589996
rradius  -1.284350665e-031 3.289268522e-031 111.3290024
rwrist  7.062250077e-031 -0 -8.290570259
rhand  -7.920061211e-032 -33.2840004 9.303460121
rfingers  -90 -7.125020027 -90
rthumb  -92.93752616 -24.25625642 -97.11982154
rfemur  -41.83050156 8.890500069 1.123200059
rtibia  -0 0 62.14400101
rfoot  -0 -1.497069955 -11.73359966
rtoes  5.373923086 19.29304026 -105.8922705
lfemur  -18.19070053 -5.380440235 -11.72210026
ltibia  -0 0 34.03720093
lfoot  4.5083183e-032 -11.74639988 1.421939969
ltoes  -4.250644065 -19.5611806 -102.515957
147
root  -1.353151122 41.59866693 3.2794224 7.057006836 2.268005371 5.983001709
lowerback  17.39520073 -2.179229975 -8.830069542
upperback  6.251239777 -4.307769775 -0.8889009953
thorax  -2.399699926 -2.211469889 4.835929871
lowerneck  -0.9164819717 -4.844299793 -13.93299961
upperneck  10.46800041 -7.063409805 11.73149967
head  4.163179874 -3.543979883 5.617139816
lclavicle  0 -9.442270133e-015 7.951389973e-016
lhumerus  9.82474041 -20.03540039 76.4905014
lradius  2.020824231e-031 -2.895706039e-031 124.9100037
lwrist  -1.412450015e-030 8.827812596e-032 18.96229935
lhand  -1.496451383e-031 -27.76390076 20.11240005
lfingers  90 7.125020027 -90
lthumb  89.89689403 5.08795885 91.16245106
rclavicle  0 -9.442270133e-015 7.951389973e-016
rhumerus  -29.59410095 8.898830414 -77.59169769
rradius  -1.324039932e-031 3.273493897e-031 112.0220032
rwrist  7.062250077e-031 -1.765562519e-031 -8.324799538
rhand  -7.920061211e-032 -33.2840004 9.303460121
rfingers  -90 -7.125020027 -90
rthumb  -92.93752616 -24.25625642 -97.11982154
rfemur  -41.72409821 10.03349972 0.2497429997
rtibia  -0 0 60.13700104
rfoot  -0 -1.85927999 -13.52280045
rtoes  5.373923086 19.29304026 -105.8922705
lfemur  -17.17889977 -4.204639912 -11.87860012
ltibia  -0 0 35.31639862
lfoot  4.510295723e-032 -11.86660004 1.359779954
ltoes  -4.250644065 -19.5611806 -102.515957
148
root  -1.428135549 41.47200096 3.236222079 6.779998779 2.73500061 6.25
lowerback  17.35409927 -2.369839907 -9.012040138
upperback  6.296609879 -4.579170227 -0.9327660203
thorax  -2.27692008 -2.353840113 4.93046999
lowerneck  -1.204049945 -4.901239872 -13.93319988
upperneck  10.5703001 -7.108560085 11.69180012
head  4.247590065 -3.559439898 5.594709873
lclavicle  0 -9.442270133e-015 7.951389973e-016
lhumerus  10.98810005 -20.28389931 76.25309753
lradius  2.014754912e-031 -2.899932186e-031 124.7900009
lwrist  -7.062250077e-031 -0 18.78479958
lhand  -1.496451383e-031 -27.76390076 20.11240005
lfingers  90 7.125020027 -90
lthumb  89.89689403 5.08795885 91.16245106
rclavicle  0 -9.442270133e-015 7.951389973e-016
rhumerus  -29.24040031 9.132800102 -77.48210144
rradius  -1.36450179e-031 3.256835719e-031 112.7320023
rwrist  0 -1.765562519e-031 -8.276309967
rhand  -7.920061211e-032 -33.2840004 9.303460121
rfingers  -90 -7.125020027 -90
rthumb  -92.93752616 -24.25625642 -97.11982154
rfemur  -41.45019913 11.13199997 -0.7210080028
rtibia  -0 0 58.06969833
rfoot  -0 -2.061219931 -14.93459988
rtoes  5.373923086 19.29304026 -105.8922705
lfemur  -16.15099907 -3.235409975 -11.99170017
ltibia  -0 0 36.72829819
lfoot  4.513122575e-032 -12.03619957 1.21528995
ltoes  -4.250644065 -19.5611806 -102.515957
149
root  -1.507342237 41.30599855 3.198044319 6.552993774 3.320999146 6.602996826
lowerback  17.33390045 -2.572580099 -9.236740112
upperback  6.252789974 -4.881929874 -1.004959941
thorax  -2.253530025 -2.503950119 5.02809
lowerneck  -1.430060029 -4.969470024 -13.88729954
upperneck  10.71940041 -7.18625021 11.68729973
head  4.339369774 -3.589799881 5.575560093
lclavicle  0 -9.442270133e-015 7.951389973e-016
lhumerus  12.13549995 -20.65870094 75.9611969
lradius  2.009487608e-031 -2.903584611e-031 124.685997
lwrist  -7.062250077e-031 -8.827812596e-032 18.37999916
lhand  -1.496451383e-031 -27.76390076 20.11240005
lfingers  90 7.125020027 -90
lthumb  89.89689403 5.08795885 91.16245106
rclavicle  0 -9.442270133e-015 7.951389973e-016
rhumerus  -29.04450035 9.19204998 -77.31919861
rradius  -1.408880511e-031 3.237885072e-031 113.5149994
rwrist  7.062250077e-031 -3.531125038e-031 -8.165829659
rhand  -7.920061211e-032 -33.2840004 9.303460121
rfingers  -90 -7.125020027 -90
rthumb  -92.93752616 -24.25625642 -97.11982154
rfemur  -41.15000153 12.2677002 -1.888620019
rtibia  -0 0 55.97750092
rfoot  -0 -1.961169958 -15.91769981
rtoes  5.373923086 19.29304026 -105.8922705
lfemur  -15.22229958 -2.452470064 -12.09469986
ltibia  -0 0 38.20830154
lfoot  5.640646583e-032 -12.00010014 1.426370025
ltoes  -4.250644065 -19.5611806 -102.515957
